<?xml version="1.0" standalone="no"?>
<!DOCTYPE svg PUBLIC "-//W3C//DTD SVG 20010904//EN"
 "http://www.w3.org/TR/2001/REC-SVG-20010904/DTD/svg10.dtd">
<svg version="1.0" xmlns="http://www.w3.org/2000/svg"
 width="502.000000pt" height="217.000000pt" viewBox="0 0 502.000000 217.000000"
 preserveAspectRatio="xMidYMid meet">

<g transform="translate(0.000000,217.000000) scale(0.100000,-0.100000)"
fill="#000000" stroke="none">
<path d="M0 1085 l0 -1085 2510 0 2510 0 0 1085 0 1085 -2510 0 -2510 0 0
-1085z m880 516 c91 -43 245 -115 343 -161 l177 -82 0 -580 0 -579 -50 3 -51
3 1 535 c0 294 -3 540 -8 546 -6 11 -54 34 -187 94 -27 12 -95 44 -150 69 -55
26 -214 99 -352 161 l-253 115 0 62 0 61 183 -85 c100 -47 256 -120 347 -162z
m-453 -17 l33 -14 0 -611 0 -610 78 3 77 3 3 113 3 112 59 -40 60 -41 0 -149
0 -150 -195 0 -195 0 0 706 0 705 22 -7 c12 -3 36 -13 55 -20z m621 -283 l142
-63 0 -519 0 -519 -190 0 -190 0 0 479 0 479 43 -16 c23 -8 48 -20 55 -25 9
-7 12 -97 12 -388 l0 -379 80 0 80 0 -2 411 -3 412 -135 58 -135 58 -3 61 -3
60 53 -23 c29 -13 117 -52 196 -86z m834 -248 l3 -228 110 -5 110 -5 0 -30 0
-30 -125 -3 c-69 -1 -135 0 -147 3 l-23 5 0 254 c0 139 3 256 7 259 3 4 19 7
34 7 l29 0 2 -227z m768 197 l0 -29 -107 -3 -108 -3 -3 -77 -3 -78 99 0 c79 0
102 -3 113 -16 9 -11 10 -20 3 -31 -8 -13 -27 -16 -95 -14 -121 3 -119 5 -119
-95 l0 -84 104 0 c84 0 106 -3 117 -17 8 -9 14 -17 14 -18 0 -1 -6 -9 -14 -18
-11 -14 -34 -17 -136 -17 -68 0 -130 3 -139 6 -14 5 -16 38 -16 258 0 139 3
256 7 259 3 4 69 7 145 7 l138 0 0 -30z m408 -172 c48 -109 90 -198 95 -198 4
0 7 90 7 201 l0 200 33 -3 32 -3 3 -257 2 -258 -26 -6 c-59 -15 -71 -1 -150
181 -41 94 -81 184 -88 200 -13 27 -15 10 -15 -172 l-1 -203 -24 -6 c-14 -3
-30 -3 -35 1 -7 4 -11 94 -11 266 l0 260 46 -3 46 -3 86 -197z m616 177 c49
-23 93 -76 107 -127 17 -66 7 -204 -19 -255 -25 -47 -71 -86 -122 -101 -49
-15 -164 -26 -195 -18 l-25 6 0 254 c0 139 3 256 8 260 13 15 207 -1 246 -19z
m624 -7 l3 -28 -109 0 c-126 0 -122 3 -122 -96 l0 -64 94 0 c52 0 101 -3 110
-6 19 -7 22 -54 4 -55 -7 0 -50 0 -96 1 -52 1 -89 -3 -98 -11 -10 -8 -14 -34
-14 -90 l0 -79 99 0 c116 0 131 -4 131 -35 0 -13 -7 -26 -16 -29 -20 -8 -248
-8 -268 0 -14 5 -16 38 -16 258 0 139 3 256 7 260 4 3 70 5 147 4 l141 -3 3
-27z m550 0 c3 -26 2 -27 -55 -30 l-58 -3 -3 -197 -2 -198 44 0 c60 0 76 -8
76 -36 0 -32 -19 -35 -175 -32 l-130 3 0 30 c0 30 1 30 58 33 l57 3 -2 197 -3
197 -57 3 c-53 3 -58 5 -58 26 0 12 3 26 7 30 4 3 72 5 152 4 l146 -3 3 -27z
m-2650 -645 c2 -8 -5 -13 -17 -13 -19 0 -21 -6 -21 -66 0 -57 3 -67 20 -71 37
-10 20 -23 -30 -23 -50 0 -67 13 -30 23 17 4 20 14 20 71 0 59 -2 66 -20 66
-20 0 -26 11 -13 24 12 11 86 2 91 -11z m622 -1 c16 -13 24 -32 27 -68 6 -64
-21 -104 -72 -104 -44 0 -65 29 -65 93 0 79 58 121 110 79z m209 -8 c12 -10
13 -20 5 -41 -8 -21 -7 -34 4 -50 13 -20 12 -26 -2 -48 -14 -21 -25 -25 -61
-25 l-45 0 0 89 c0 62 4 91 13 94 18 8 70 -3 86 -19z m209 9 c2 -8 -5 -13 -17
-13 -19 0 -21 -6 -21 -66 0 -57 3 -67 20 -71 37 -10 20 -23 -30 -23 -50 0 -67
13 -30 23 17 4 20 14 20 70 0 57 -2 65 -21 70 -12 3 -18 10 -14 17 9 15 87 9
93 -7z m409 0 c2 -6 -3 -13 -13 -15 -24 -4 -24 -131 0 -136 36 -7 13 -22 -34
-22 -27 0 -50 5 -50 10 0 6 9 10 20 10 18 0 20 7 20 69 0 61 -2 69 -21 74 -12
3 -18 10 -15 16 9 14 88 9 93 -6z m391 7 c7 0 17 -11 24 -25 9 -19 8 -29 -6
-50 -15 -24 -15 -27 4 -65 27 -53 3 -55 -25 -2 -26 49 -49 49 -53 0 -6 -74
-22 -37 -22 51 0 93 5 104 45 96 11 -3 26 -5 33 -5z m230 -7 c2 -8 -5 -13 -17
-13 -19 0 -21 -6 -21 -66 0 -57 3 -67 20 -71 37 -10 20 -23 -30 -23 -50 0 -67
13 -30 23 17 4 20 14 20 71 0 59 -2 66 -20 66 -20 0 -26 11 -14 23 11 11 87 2
92 -10z m-1900 -55 l27 -63 5 59 c3 35 10 61 18 64 9 3 12 -19 12 -87 0 -80
-2 -91 -18 -91 -11 0 -27 21 -47 63 l-29 62 -4 -62 c-5 -96 -22 -75 -22 27 0
75 3 90 16 90 10 0 26 -24 42 -62z m186 24 c12 -41 22 -41 37 3 9 23 19 35 29
33 12 -3 16 -21 18 -91 2 -55 -1 -87 -8 -87 -6 0 -10 25 -10 60 0 65 -12 78
-29 30 -13 -39 -26 -38 -42 3 l-13 32 -5 -59 c-4 -38 -11 -61 -20 -64 -12 -4
-13 7 -8 58 4 35 7 76 7 92 0 41 31 34 44 -10z m824 -45 l3 -77 34 0 c19 0 35
-4 35 -10 0 -5 -22 -10 -50 -10 l-50 0 0 91 c0 68 3 90 13 87 8 -3 13 -31 15
-81z m476 -3 c28 -86 27 -119 -1 -76 -21 30 -79 31 -88 2 -7 -22 -25 -27 -25
-8 0 7 12 48 26 90 35 107 51 105 88 -8z m618 -3 c28 -86 28 -114 1 -73 -11
15 -25 22 -48 22 -23 0 -37 -7 -48 -22 -35 -53 -23 13 28 150 3 8 13 12 22 10
13 -2 26 -28 45 -87z"/>
<path d="M3498 1214 c-5 -4 -8 -95 -8 -202 l0 -194 70 4 c63 3 73 7 104 37 43
42 60 101 54 190 -6 77 -26 120 -70 146 -32 18 -138 32 -150 19z"/>
<path d="M2742 565 c-16 -35 -15 -66 4 -93 41 -58 99 11 73 87 -14 41 -60 44
-77 6z"/>
<path d="M2952 563 c4 -32 29 -41 51 -18 23 22 10 45 -25 45 -26 0 -29 -3 -26
-27z"/>
<path d="M2952 483 c3 -24 8 -28 33 -28 25 0 30 4 30 25 0 21 -5 26 -33 28
-31 3 -33 2 -30 -25z"/>
<path d="M3987 584 c-10 -11 -9 -42 3 -49 20 -12 51 6 48 28 -3 22 -36 35 -51
21z"/>
<path d="M3791 539 c-15 -45 -14 -49 14 -49 26 0 31 13 19 58 -9 31 -20 28
-33 -9z"/>
<path d="M4410 546 c-16 -43 -13 -56 16 -56 24 0 26 2 20 32 -9 47 -23 56 -36
24z"/>
</g>
</svg>
